<svg width="98" height="98" viewBox="0 0 98 98" fill="none" xmlns="http://www.w3.org/2000/svg">
  <rect width="98" height="98" rx="17.8182" fill="#262E45" />
  <path
    d="M41.2737 26.7996C42.3629 26.587 42.8979 26.8725 43.8875 27.2843C46.0437 28.1817 48.3114 28.8669 50.5922 29.4118C54.1797 30.269 59.2093 30.3999 62.678 31.6471C64.1656 31.9418 66.9754 32.5685 67.3059 33.0385C67.6365 33.5086 71.1141 53.0302 71.1141 55.6963C69.7903 57.0906 67.1176 58.4985 65.5854 59.6729C61.4758 62.8225 55.3467 65.9015 51.5582 69.4041C50.7165 70.1822 49.9465 71.5722 48.9444 70.6698C47.239 69.134 45.9482 67.3673 44.4273 65.6607C41.4362 62.3046 38.3156 58.8398 35.0804 55.6963C33.5496 54.209 32.2931 52.5408 30.7905 51.0373C30.0736 50.32 30.9567 49.0436 31.3018 48.3711C34.1965 42.7308 37.1978 37.2009 40.251 31.6471C40.8274 30.5986 42.5522 28.72 42.5522 27.5267"
    stroke="#C08AFF" stroke-width="2.92236" stroke-linecap="round" />
  <path
    d="M42.1982 27.036C41.3724 27.4599 40.9947 28.003 40.4734 28.7933C39.173 30.7646 37.9605 32.8015 36.624 34.7455C34.4401 37.9222 32.098 40.9726 29.8928 44.133C28.8603 45.6129 28.0713 47.2121 27.1583 48.7587C26.8188 49.3338 27.3063 49.7272 27.6211 50.1419C31.3147 55.0083 49.4737 71.2726 49.4737 71.2726"
    stroke="#1234F5" stroke-width="2.92236" stroke-linecap="round" />
  <path
    d="M67.4834 33.2228C65.3065 39.1294 62.0373 47.0335 62.2923 52.3415M62.2923 52.3415C62.3568 53.6838 62.2923 50.996 62.2923 52.3415ZM62.2923 52.3415C60.2303 56.1695 54.86 60.8188 52.6409 64.564C51.9418 65.7439 51.2817 66.9442 50.7106 68.1811C50.5355 68.5605 50.3145 69.5994 50.1074 68.8306"
    stroke="#E2C488" stroke-width="2.92236" stroke-linecap="round" />
  <path
    d="M43.4863 28.2744C41.1145 33.8748 40.0685 39.6949 38.3681 45.475C37.6009 48.0826 38.6349 50.5796 39.5675 53.1121C41.5378 58.4631 44.4023 63.1088 47.2864 68.0011C47.5335 68.4203 48.1594 69.1707 48.189 69.6781C48.2368 70.4996 48.189 69.7108 48.189 69.2702"
    stroke="#EE526E" stroke-width="2.92236" stroke-linecap="round" />
  <path
    d="M62.1113 53.0203C63.5716 53.4306 65.1806 53.7174 66.7013 54.0853C68.1415 54.4337 69.4205 54.9084 70.9983 55.1503C71.657 55.2512 70.961 55.1077 70.681 55.0782C69.1444 54.9163 68.1803 54.8515 67.1652 54.3168"
    stroke="#1234F5" stroke-width="2.92236" stroke-linecap="round" />
  <path
    d="M38.1009 46.5249C35.8563 47.5271 32.9516 47.7081 30.5391 48.1752C29.3626 48.403 28.2662 48.864 27.1085 49.1609C26.1404 49.4091 27.2768 49.2884 27.6642 49.2067"
    stroke="#9E7647" stroke-width="2.92236" stroke-linecap="round" />
  <path
    d="M62.1099 53.0211C60.166 52.4573 55.3727 48.7184 54.3125 47.2244C51.696 43.5376 48.7798 40.106 45.8749 36.6306C44.0321 34.4258 43.0864 31.583 42.0435 28.9408C41.7202 28.1217 41.8961 26.2883 42.701 27.3669"
    stroke="#64D7C0" stroke-width="2.92236" stroke-linecap="round" />
</svg>
  