<svg width="16" height="16" viewBox="0 0 16 16" fill="none" xmlns="http://www.w3.org/2000/svg">
  <path
    d="M5.37671 9.81319C5.37671 8.36471 6.54688 7.17637 8.00753 7.17637C9.46818 7.17637 10.6383 8.36471 10.6383 9.81319C10.6383 11.2617 9.46818 12.45 8.00753 12.45C6.54688 12.45 5.37671 11.2617 5.37671 9.81319Z"
    fill="#ADB3D6" />
  <path fill-rule="evenodd" clip-rule="evenodd"
    d="M8 16C12.4183 16 16 12.4183 16 8C16 3.58172 12.4183 0 8 0C3.58172 0 0 3.58172 0 8C0 12.4183 3.58172 16 8 16ZM7.46864 2V4.37436C6.86927 4.43381 6.29802 4.59139 5.77119 4.83107L4.58673 2.76848L3.65697 3.32472L4.83495 5.37603C3.46457 6.36869 2.57 7.98812 2.57 9.82291H3.6477C3.6477 7.41447 5.59192 5.44777 8.0075 5.44777C10.4231 5.44777 12.3673 7.41447 12.3673 9.82291H13.445C13.445 7.98812 12.5504 6.36867 11.18 5.37602L12.3579 3.3247L11.4281 2.7685L10.2438 4.83107C9.71697 4.59139 9.14571 4.43381 8.54635 4.37436V2H7.46864ZM8.00753 6.07637C5.96706 6.07637 4.29901 7.74161 4.29901 9.81319C4.29901 11.8848 5.96706 13.55 8.00753 13.55C10.048 13.55 11.716 11.8848 11.716 9.81319C11.716 7.74161 10.048 6.07637 8.00753 6.07637Z"
    fill="#ADB3D6" />
</svg>