<svg width="747" height="851" viewBox="0 0 747 851" fill="none" xmlns="http://www.w3.org/2000/svg">
<path opacity="0.3" d="M523.521 208.923C553.756 201.445 583.378 191.475 611.976 179.153C635.784 168.885 661.49 156.72 686.536 163.417C713.897 170.736 730.759 198.432 738.896 225.552C756.762 285.129 744.616 352.9 707.145 402.554C669.684 452.208 607.847 482.499 545.656 481.671C514.128 481.252 483.214 473.366 451.854 470.139C420.493 466.912 386.91 468.902 360.534 486.182C342.548 497.974 329.481 515.877 318.376 534.292C290.411 580.672 278.441 629.703 276.088 682.928C273.828 734.247 281.892 802.781 303.208 850.063C284.319 808.165 266.555 754.708 238.394 718.204C218.51 692.424 177.273 677.609 176.51 639.347C175.906 608.936 205.564 588.224 223.691 563.811C227.978 558.035 231.828 551.404 231.689 544.224C230.973 506.038 173.116 521.197 152.414 523.401C128.763 525.912 104.22 527.326 81.741 519.542C59.2624 511.748 39.1645 492.673 37.0255 468.985C35.6955 454.254 41.3594 439.578 49.8319 427.451C77.2862 388.185 130.13 375.332 178.026 376.82C209.833 377.815 240.673 384.902 271.996 388.408C297.934 391.319 332.001 378.271 354.294 365.278C379.098 350.817 399.651 326.171 401.92 297.554C403.446 278.256 396.787 258.13 403.157 239.837C409.491 221.636 428.305 203.817 447.873 206.895C474.286 211.034 496.653 215.544 523.475 208.913L523.493 208.932L523.521 208.923Z" fill="url(#paint0_linear_401_1082)"/>
<path d="M292.244 230.372C268.64 245.28 236.452 241.718 213.052 226.484C189.653 211.26 174.112 186.224 164.552 159.997C160.143 147.897 157.046 133.649 163.845 122.712C163.947 161.439 169.276 202.592 193.782 232.567C206.403 248.005 225.673 260.068 245.399 257.147C255.778 255.613 265.152 250.135 275.308 247.475C293.611 242.676 322.535 255.297 316.899 278.64C315.327 285.123 310.249 290.107 305.069 294.32C276.406 317.608 239.372 327.634 203.138 334.795C166.905 341.956 129.685 347.034 96.1854 362.575C62.686 378.116 32.6183 406.584 26.3127 442.976C18.547 487.821 48.6426 531.374 85.3507 558.271C112.34 578.043 145.235 592.207 178.548 589.054C203.269 586.72 226.035 575.169 248.124 563.814C217.228 566.222 186.258 575.737 155.772 570.166C135.284 566.418 116.19 555.76 101.914 540.591C87.1549 524.892 77.4083 503.427 79.7054 481.99C82.449 456.321 102.1 434.754 125.388 423.631C148.676 412.508 175.2 410.304 201.018 410.425C226.835 410.546 252.746 412.778 278.387 409.82C316.945 405.375 354.035 388.904 383.182 363.263C414.291 335.902 434.119 289.363 401.717 254.404C389.041 240.723 371.938 232.111 355.067 224.15C327.194 211 315.764 215.501 292.216 230.381H292.235L292.244 230.372Z" fill="url(#paint1_linear_401_1082)"/>
<path d="M440.862 451.564C443.187 451.433 445.447 450.829 446.944 449.127C448.832 446.96 448.795 443.612 447.558 441.017C446.321 438.422 444.098 436.451 441.848 434.674C426 422.11 406.665 415.748 387.804 409.266C378.271 405.992 368.738 402.635 359.633 398.273C350.017 393.66 341.247 387.727 330.44 386.099C322.321 384.872 315.978 389.94 307.971 389.401C307.041 389.336 306.092 389.187 305.19 389.447C304.288 389.708 303.497 390.6 303.711 391.503C303.925 392.423 304.985 392.842 305.897 393.084C310.045 394.181 314.313 394.748 318.415 396.013C321 396.813 323.493 397.873 325.967 398.952C339.619 404.858 353.095 410.894 366.199 418.148C371.519 421.087 376.978 423.988 382.214 426.983C387.451 429.978 392.156 434.293 397.374 437.483C409.725 445.026 423.554 450.615 437.997 451.545C438.927 451.601 439.895 451.629 440.852 451.573L440.862 451.564Z" fill="url(#paint2_linear_401_1082)"/>
<path d="M325.295 381.586C318.673 374.052 309.159 370.128 300.296 365.943C295.6 363.72 291.349 360.632 287.406 357.256C285.62 355.731 283.472 354.159 282.077 352.29C280.347 349.965 278.636 347.63 276.841 345.361C276.45 344.868 275.939 344.32 275.306 344.385C274.804 344.44 274.423 344.905 274.321 345.398C274.218 345.891 274.33 346.403 274.488 346.886C276.32 352.513 281.696 355.471 284.979 360.028C285.537 360.809 286.057 361.878 285.518 362.678C285.286 363.022 284.904 363.227 284.542 363.413C283.109 364.111 281.584 364.622 280.031 364.91C280.087 366.036 280.794 367.021 281.538 367.868C287.369 374.49 296.502 376.973 303.895 381.79C306.639 383.576 309.159 385.715 311.373 388.124C314.098 391.081 316.525 394.578 320.199 396.224C322.868 397.415 329.378 398.168 330.606 394.597C332.019 390.495 327.76 384.394 325.286 381.586H325.295Z" fill="url(#paint3_linear_401_1082)"/>
<path d="M285.444 359.039C283.398 356.686 281.389 354.324 279.343 351.98C277.446 349.804 275.697 347.414 274.851 344.615C274.619 343.843 274.451 343.024 273.986 342.355C272.21 339.797 271.484 342.848 271.484 344.354C271.484 345.861 271.615 347.377 271.949 348.809C272.814 352.445 274.488 355.607 277.139 358.174C279.027 359.997 281.082 361.662 283.286 363.094C287.332 365.726 287.676 361.597 285.435 359.03L285.444 359.039Z" fill="url(#paint4_linear_401_1082)"/>
<path d="M271.702 339.659C271.702 340.338 271.665 341.008 271.665 341.687C271.637 346.811 273.441 352.559 276.715 356.558C278.37 358.576 285.671 362.287 285.317 365.142C284.918 368.36 280.844 367.783 279.04 366.463C274.669 363.273 271.507 358.353 269.293 353.489C267.08 348.625 266.01 343.035 268.27 337.957C268.67 337.065 269.433 336.07 270.391 336.293C271.181 336.479 271.525 337.399 271.628 338.209C271.683 338.692 271.702 339.176 271.711 339.659H271.702Z" fill="url(#paint5_linear_401_1082)"/>
<path d="M283.836 377.918C282.236 376.216 280.878 374.486 279.009 373.091C276.982 371.575 274.88 370.236 273.029 368.506C269.318 365.046 266.789 360.573 265.105 355.811C264.212 353.3 263.561 350.715 263.031 348.111C262.603 346.009 261.404 342.93 261.859 340.81C262.204 339.238 263.952 337.983 265.375 339.21C266.054 339.796 266.379 340.68 266.649 341.526C268.983 348.892 271.234 356.741 276.805 362.442C284.561 370.375 296.642 372.189 305.161 379.239C307.886 381.545 310.453 384.317 313.811 385.646C317.168 386.976 320.005 388.641 323.102 390.585C324.478 391.45 325.938 392.398 326.561 393.905C326.784 394.454 326.887 395.096 326.608 395.616C326.208 396.379 325.241 396.584 324.376 396.686C318.73 397.374 314.973 396.732 309.746 394.844C304.854 393.077 300.167 390.734 295.805 387.897C291.518 385.098 287.537 381.815 284.003 378.113C283.947 378.048 283.882 377.992 283.827 377.918H283.836Z" fill="url(#paint6_linear_401_1082)"/>
<path d="M339.13 398.251C339.93 399.739 340.785 401.19 341.938 402.418C344.515 405.161 349.565 408.156 352.197 410.862C349.416 410.146 331.671 401.45 326.128 398.958C323.431 397.749 321.255 397.2 318.381 397.07C315.656 396.949 312.819 395.21 310.708 393.61C305.007 389.295 299.799 382.32 296.274 376.116C296.042 375.707 295.819 375.186 296.07 374.787C296.395 374.275 297.158 374.433 297.725 374.647C301.678 376.293 306.179 378.386 310.541 378.265C315.275 378.135 314.912 374.907 315.86 371.308C315.963 370.927 316.112 370.527 316.419 370.267C319.943 367.132 327.43 377.4 329.085 379.465C331.159 382.059 332.899 384.375 334.145 387.472C335.531 390.932 337.102 394.336 338.832 397.647C338.934 397.851 339.046 398.046 339.158 398.26L339.13 398.251Z" fill="url(#paint7_linear_401_1082)"/>
<path d="M453.237 422.442C455.301 426.525 457.124 430.757 459.068 434.905C469.001 456.193 482.095 475.835 495.134 495.384C510.349 518.198 531.917 539.132 556.953 550.953C574.763 559.36 594.74 568.149 611.871 575.589C602.896 567.368 590.908 566.54 582.715 558.086C574.521 549.632 567.09 542.583 561.166 532.548C532.159 483.443 521.817 423.093 511.94 367.664C510.629 360.289 506.881 349.649 497.18 353.62C493.702 355.043 493.144 358.512 490.559 360.837C486.904 364.13 481.947 366.827 477.538 369.031C462.658 376.499 451.153 368.278 436.803 365.59C429.791 364.279 421.114 367.831 421.03 376.174C420.983 380.693 423.336 384.888 426.024 388.524C432.711 397.564 441.844 404.614 448.243 413.867C450.13 416.592 451.749 419.475 453.246 422.433L453.237 422.442Z" fill="url(#paint8_linear_401_1082)"/>
<path d="M411.231 340.58C411.714 346.085 414.309 351.638 417.053 355.962C418.29 357.906 428.92 375.567 430.519 375.065C432.547 374.432 433.058 371.856 433.207 369.745C433.84 361.059 433.263 351.684 434.732 343.128C435.635 337.892 437.904 333.186 438.453 327.968C439.001 322.751 441.68 316.715 438.797 312.009C436.992 309.08 433.43 307.694 431.301 304.988C430.231 312.949 424.521 319.44 418.597 324.862C416.569 326.713 414.449 328.554 413.109 330.945C411.417 333.949 410.933 337.259 411.231 340.589V340.58Z" fill="url(#paint9_linear_401_1082)"/>
<path d="M416.667 281.192C424.2 289.013 432.961 298.267 431.231 309.976C429.223 323.536 422.145 335.896 417.625 348.684C415.198 355.557 413.356 362.96 414.863 370.084C416.937 379.877 424.777 387.177 431.055 394.971C439.23 405.108 445.135 416.789 452.678 427.373C460.49 438.347 470.06 445.955 482.745 450.735C484.289 451.321 485.954 451.842 487.582 451.507C490.976 450.81 492.511 446.941 493.478 443.611C496.417 433.539 499.384 423.188 498.575 412.725C498.258 408.624 497.365 404.587 496.473 400.579C493.032 385.048 488.744 369.944 484.522 354.58C482.485 347.186 480.392 339.793 477.667 332.631C464.387 297.756 435.472 269.176 400.448 256.295C398.885 255.718 397.992 262.061 398.197 262.926C398.708 265.093 400.299 265.549 401.675 267.093C406.139 272.143 411.971 276.3 416.677 281.192H416.667Z" fill="url(#paint10_linear_401_1082)"/>
<path d="M445.716 292.643C449.018 296.41 451.957 300.39 454.068 304.771C459.843 316.749 462.14 330.486 460.652 343.683C458.802 360.172 451.241 376.95 456.374 392.732C458.42 399.01 462.336 404.479 466.307 409.752C478.89 426.446 485.763 440.647 500.513 455.462C505.331 410.607 499.462 377.247 494.198 337.312C492.515 324.524 489.567 311.383 481.634 301.227C474.128 291.629 462.671 284.775 453.128 277.381C446.832 272.508 440.536 267.625 434.249 262.752C431.654 260.743 421.108 249.555 418.401 255.191C417.787 256.474 417.936 258 418.271 259.395C419.564 264.696 423.182 269.076 426.79 273.168C432.575 279.753 439.755 285.863 445.707 292.662L445.716 292.643Z" fill="url(#paint11_linear_401_1082)"/>
<path d="M405.44 202.656C399.442 193.04 385.417 174.774 372.685 174.476C369.327 174.402 366.044 175.574 363.031 178.494C354.01 187.218 350.067 200.164 349.732 212.71C349.034 238.537 365.998 261.173 388.123 273.292C395.043 277.077 402.901 279.895 410.723 278.853C448.175 273.877 415.224 218.318 405.44 202.656Z" fill="url(#paint12_linear_401_1082)"/>
<path opacity="0.3" d="M350.934 193.02C351.52 206.589 357.146 237.391 375.003 252.095C392.859 266.798 412.204 273.978 419.644 275.727M366.688 256.038C370.176 256.801 376.193 257.796 380.88 253.778C388.934 246.877 396.598 225.887 401.48 213.815" stroke="#1234F5" stroke-width="0.735459" stroke-linecap="round"/>
<path opacity="0.3" d="M421.801 275.343C432.003 285.211 437.081 303.272 435.621 317.278C434.347 329.498 430.497 341.561 427.53 353.521C426.321 358.376 425.112 363.407 425.986 368.336C426.953 373.823 430.376 378.511 433.705 382.975C443.601 396.274 453.496 409.573 463.401 422.873" stroke="#1234F5" stroke-width="0.735459" stroke-linecap="round"/>
<path d="M655.133 603.118C638.43 591.288 621.559 579.365 602.726 571.348C585.149 563.852 565.646 559.63 550.896 547.465C533.616 533.217 525.823 510.301 523.126 488.064C521.6 475.574 514.318 435.769 522.968 426.934C542.61 458.555 560.596 489.348 584.368 518.411C596.021 532.659 608.074 546.591 620.025 560.597C630.636 573.041 641.964 593.79 655.133 603.108V603.118Z" fill="url(#paint13_linear_401_1082)"/>
<path d="M510.551 484.334C511.592 485.664 512.615 487.003 513.62 488.361C526.315 505.464 532.034 523.088 532.462 544.479C532.936 569.617 529.746 598.355 517.591 620.861C499.976 653.45 482.371 686.047 464.766 718.635C467.453 713.659 466.468 702.815 466.923 697.142C467.537 689.544 468.002 681.936 468.337 674.319C470.067 634.589 464.849 594.123 469.806 554.634C471.294 542.758 473.87 531.03 475.266 519.135C478.176 494.35 475.889 468.97 468.579 445.105C470.076 449.988 487.421 459.651 491.718 463.706C498.498 470.105 504.794 477.005 510.551 484.334Z" fill="url(#paint14_linear_401_1082)"/>
<path d="M465.378 461.182C469.582 463.117 473.925 464.791 478.501 466.372C482.435 467.73 486.406 468.985 490.405 470.12C490.991 470.287 491.595 470.455 492.2 470.353C492.869 470.241 493.446 469.822 493.958 469.385C498.626 465.442 501.76 458.076 500.058 451.966C499.538 450.087 498.282 448.506 496.98 447.046C481.272 429.469 457.045 424.214 437.226 412.914C413.138 399.168 391.366 381.665 366.247 369.519C368.878 377.406 364.424 383.879 356.984 385.358C352.073 386.343 347.004 386.734 342.047 387.376C338.829 387.794 332.998 387.376 327.613 388.464C339.211 387.915 340.429 389.254 347.6 389.04C361.02 388.641 371.315 395.755 382.81 401.698C399.811 410.487 414.189 423.312 428.716 435.57C436.045 441.754 443.457 447.855 451.372 453.277C455.929 456.402 460.56 458.95 465.378 461.173V461.182Z" fill="url(#paint15_linear_401_1082)"/>
<path d="M293.339 290.438L289.721 270.694" stroke="url(#paint16_linear_401_1082)" stroke-width="4.90306" stroke-miterlimit="10"/>
<path d="M279.282 297.212L264.56 283.15L254.404 292.292" stroke="url(#paint17_linear_401_1082)" stroke-width="4.90306" stroke-miterlimit="10"/>
<path d="M295.727 337.336V361.442" stroke="url(#paint18_linear_401_1082)" stroke-width="4.90306" stroke-miterlimit="10"/>
<path d="M305.461 335.502V361.45" stroke="url(#paint19_linear_401_1082)" stroke-width="4.90306" stroke-miterlimit="10"/>
<path d="M270.1 317.838C270.1 302.502 282.543 290.058 297.879 290.058C313.216 290.058 325.659 302.502 325.659 317.838" stroke="url(#paint20_linear_401_1082)" stroke-width="4.90306" stroke-miterlimit="10"/>
<path d="M297.885 337.329C308.655 337.329 317.388 328.596 317.388 317.826C317.388 307.057 308.655 298.324 297.885 298.324C287.116 298.324 278.383 307.057 278.383 317.826C278.383 328.596 287.116 337.329 297.885 337.329Z" fill="#16203B" stroke="url(#paint21_linear_401_1082)" stroke-width="4.90306" stroke-miterlimit="10"/>
<path d="M302.799 308.537C304.752 311.522 306.166 314.796 307.012 318.265C307.319 319.511 309.244 318.981 308.937 317.735C308.063 314.117 306.566 310.648 304.529 307.532C303.822 306.463 302.092 307.458 302.799 308.537Z" fill="white"/>
<path d="M296.872 311.697C299.104 314.738 300.76 318.142 301.755 321.788C302.09 323.025 304.024 322.504 303.68 321.258C302.648 317.463 300.927 313.864 298.593 310.702C298.276 310.274 297.728 310.051 297.226 310.339C296.798 310.59 296.547 311.269 296.863 311.706L296.872 311.697Z" fill="white"/>
<path d="M349.521 388.411C357.343 388.504 364.922 387.89 372.725 388.365C379.031 388.746 384.751 390.076 390.768 391.992C394.274 393.108 397.511 394.921 400.71 396.735C404.151 398.679 407.592 400.622 411.033 402.566C403.602 397.358 396.264 392.029 389.019 386.57C382.509 381.659 375.515 377.483 369.693 371.755C367.815 369.913 365.871 368.127 363.704 366.621C362.188 365.57 358.682 364.724 357.603 363.477C359.221 365.328 360.84 367.262 361.621 369.597C362.402 371.931 362.188 374.74 360.477 376.507C359.64 377.363 358.533 377.902 357.454 378.395C351.428 381.185 345.252 383.361 338.993 385.565C335.673 386.728 336.613 388.207 339.765 388.309C342.909 388.411 346.276 388.383 349.531 388.421L349.521 388.411Z" fill="url(#paint22_linear_401_1082)"/>
<path d="M370.693 375.224C369.27 372.871 367.447 371.067 365.215 369.495C361.82 367.115 358.221 364.864 354.185 363.869C350.139 362.874 345.833 364.892 341.676 364.976C336.44 365.087 331.185 364.445 326.117 363.125C316.361 360.595 307.237 355.554 300.076 348.449C296.998 345.389 293.649 340.832 289.26 339.651C288.199 339.372 291.222 346.143 291.51 346.766C293.036 350.011 294.858 353.118 297.156 355.88C302.354 362.167 309.571 366.287 316.937 369.542C325.233 373.225 333.12 376.052 342.355 375.717C346.633 375.559 350.669 374.322 354.91 374.536C360.146 374.797 365.475 375.894 370.721 375.215L370.693 375.224Z" fill="url(#paint23_linear_401_1082)"/>
<path d="M296.24 375.772C292.725 372.833 289.377 368.815 289.786 364.249C289.805 364.118 289.823 363.979 289.907 363.895C290.084 363.728 290.381 363.83 290.595 363.96C295.403 366.741 300.026 369.866 304.406 373.288C306.21 374.702 307.996 376.171 310.07 377.157C312.2 378.162 314.552 378.599 316.719 379.538C321.128 381.426 324.513 385.183 328.912 387.081C331.832 388.346 338.091 388.978 341.244 389.331C328.326 390.326 308.182 385.751 296.25 375.79L296.24 375.772Z" fill="url(#paint24_linear_401_1082)"/>
<path d="M319.839 347.629C319.384 346.689 318.974 345.555 319.477 344.643C320.425 342.941 323.029 343.946 324.527 345.173C330.302 349.898 335.501 355.618 342.346 358.594C347.573 360.863 353.469 361.421 358.659 363.718C360.463 364.518 362.062 365.708 363.523 367.02C365.122 368.452 366.731 369.894 368.201 371.437C368.926 372.2 370.061 373.204 370.544 374.144C371.028 375.083 371 375.948 370.414 377.027C370.498 376.627 369.903 375.641 369.67 375.353C369.233 374.804 368.721 374.404 368.173 373.958C367.094 373.074 365.773 372.47 364.499 371.893C361.774 370.656 358.919 369.754 356.017 369.029C352.121 368.052 348.14 367.382 344.178 366.694C333.52 364.853 324.517 357.292 319.821 347.61L319.839 347.629Z" fill="url(#paint25_linear_401_1082)"/>
<path d="M297.781 364.231C295.661 362.529 293.54 360.789 291.81 358.688C290.08 356.586 288.778 354.177 287.495 351.787C285.895 348.801 284.268 345.77 283.607 342.449C285.839 341.938 288.183 343.026 289.839 344.616C291.494 346.207 292.61 348.253 293.838 350.187C297.446 355.832 302.143 361.078 307.816 364.733C309.192 365.626 310.643 366.407 312.15 367.049C313.656 367.69 315.172 367.755 316.763 368.183C320.79 369.253 324.817 370.331 328.993 370.648C333.754 371.001 338.711 370.341 342.831 367.932C344.431 366.993 345.91 365.793 347.667 365.17C349.5 364.519 351.508 364.547 353.434 364.798C360.065 365.672 366.026 369.132 370.23 374.275C374.778 379.836 353.871 387.258 350.104 388.086C342.562 389.75 334.694 389.611 327.067 388.355C321.99 387.518 316.726 385.798 314.41 380.813C313.48 378.813 312.922 376.637 311.462 374.926C310.225 373.475 308.486 372.48 306.97 371.355C303.863 369.057 300.831 366.658 297.818 364.24H297.8L297.781 364.231Z" fill="url(#paint26_linear_401_1082)"/>
<path d="M366.735 380.915C359.658 385.956 350.581 388.913 341.922 389.397C333.813 389.853 324.354 389.174 317.37 384.775C314.57 383.008 312.115 380.832 309.706 378.562C307.753 376.73 305.354 375.4 303.224 373.726C299.439 370.75 295.654 367.783 291.878 364.807C290.539 363.756 289.181 362.687 288.195 361.301C287.162 359.85 286.577 358.139 286.009 356.446C285.423 354.689 284.828 352.94 284.242 351.182C286.102 351.433 287.702 352.652 288.939 354.065C290.176 355.479 291.106 357.125 292.24 358.623C295.542 362.956 300.248 365.914 304.861 368.676C309.846 371.662 315.007 374.721 320.606 376.395C323.638 377.297 326.456 376.916 329.507 377.297C336.677 378.2 343.922 375.363 351.139 375.363C356.682 375.363 363.062 376.767 366.735 380.925V380.915Z" fill="url(#paint27_linear_401_1082)"/>
<path d="M509.567 380.812C510.014 388.205 510.172 395.618 510.042 403.03C509.642 425.239 508.135 447.439 496.203 466.941C494.947 468.997 492.873 471.266 490.576 470.55C489.256 470.141 488.437 468.848 487.777 467.639C482.299 457.567 479.872 446.165 477.77 434.893C473.65 412.851 470.488 390.633 468.302 368.322C466.293 347.824 464.256 327.252 468.153 306.838C468.674 304.113 469.427 301.164 471.659 299.509C478.56 294.413 486.921 301.564 491.469 306.549C497.654 313.32 500.276 323.476 502.369 332.237C506.173 348.177 508.572 364.453 509.567 380.812Z" fill="url(#paint28_linear_401_1082)"/>
<path d="M347.251 202.059C348.776 200.952 350.255 199.631 351.854 198.738C355.76 196.544 360.55 196.934 365.005 197.39C370.352 197.929 376.202 197.846 381.355 199.436C386.907 201.147 390.45 205.807 395.5 208.02C397.332 209.424 399.211 210.903 400.327 212.931C402.894 217.609 401.797 222.212 407.144 224.491C413.003 226.993 416.686 228.527 419.895 234.991C422.722 240.673 423.448 247.137 426.014 252.922C427.512 256.298 429.493 259.45 432.097 262.073C434.403 264.407 436.273 266.826 439.723 267.467C442.773 268.025 446.056 267.058 448.316 264.938C449.46 263.859 450.334 262.529 451.432 261.394C452.529 260.269 453.962 259.311 455.543 259.348C457.486 259.385 459.142 260.948 459.886 262.752C460.63 264.556 460.658 266.556 460.667 268.5C461.058 266.472 461.262 264.407 461.281 262.343C461.3 260.799 461.169 259.144 460.211 257.916C459.216 256.632 457.496 256.102 455.868 256.056C454.231 256.009 452.622 256.344 451.004 256.428C434.254 257.349 430.386 226.816 426.526 215.377C424.601 209.648 422.648 203.9 419.941 198.487C413.989 186.592 404.066 176.455 391.706 171.526C368.557 162.291 338.397 175.888 341.503 204.04C343.624 204.356 345.456 203.361 347.241 202.059H347.251Z" fill="url(#paint29_linear_401_1082)"/>
<path d="M444.468 276.693C460.13 289.025 481.753 297.181 500.307 302.185C503.609 303.068 507.059 304.073 509.477 306.491C514.657 311.69 512.658 320.32 510.51 327.333C503.395 350.537 501.07 381.014 521.605 393.96C533.695 401.577 549.459 399.707 563.065 395.364C576.671 391.03 589.822 384.446 604.061 383.32C618.299 382.195 634.612 388.501 639.095 402.06C641.559 409.51 640.053 417.62 638.406 425.292C631.655 456.643 623.48 491.836 640.815 518.806C632.008 493.249 639.922 464.325 655.045 441.921C666.679 424.688 681.234 413.351 696.691 399.903C713.878 384.948 724.852 363.604 729.484 341.302C737.891 300.818 731.251 246.932 695.65 220.78C679.225 208.718 656.551 203.258 636.677 200.636C613.91 197.632 591.143 204.653 569.427 210.568C560.284 213.061 551.096 215.395 541.87 217.59C513.439 224.342 483.613 229.652 455.192 222.863C437.14 218.557 420.455 209.527 402.338 205.472C399.753 204.895 396.944 204.439 394.554 205.565C386.705 209.248 395.996 219.217 400.19 221.375C405.938 224.333 413.248 224.128 418.102 228.397C425.096 234.554 422.957 245.816 425.877 254.67C428.258 261.878 434.024 267.365 439.586 272.536C441.13 273.977 442.767 275.363 444.468 276.693Z" fill="url(#paint30_linear_401_1082)"/>
<path d="M358.834 206.73C358.137 207.074 357.448 207.493 356.779 207.967C351.059 212.078 348.604 220.42 343.833 225.526C338.857 230.846 331.947 235.049 324.693 234.389C314.026 233.403 306.762 221.825 307.19 211.129C307.618 200.434 313.793 190.818 320.703 182.633C327.613 174.449 335.537 166.962 340.699 157.569C348.241 143.851 349.087 127.241 346.186 111.858C343.293 96.4758 336.913 81.9953 330.599 67.673C343.284 82.7952 348.967 102.54 352.584 121.959C355.96 140.094 364.238 150.324 383.145 140.345C413.733 124.209 433.887 94.1694 456.18 67.7195C478.463 41.2789 507.573 15.9729 542.16 15.8334C552.075 15.7962 562.714 18.3166 569.15 25.8405C579.036 37.3914 575.167 54.6991 575.52 69.905C576.218 100.047 597.99 128.515 626.886 137.081C642.705 141.768 659.567 140.875 675.954 142.67C692.359 144.456 709.732 149.831 719.33 163.242C729.226 177.044 728.296 196.333 721.497 211.892C714.689 227.451 702.897 240.183 691.532 252.804C661.297 286.359 632.624 321.328 605.635 357.543C582.626 388.42 559.998 422.701 559.171 461.194C557.655 431.508 569.513 402.817 583.24 376.469C596.976 350.112 612.972 324.518 620.915 295.873C628.82 267.368 626.244 233.552 589.982 238.332C570.815 240.862 552.093 246.842 535.009 255.901C522.137 262.727 509.47 271.516 494.925 272.362C477.682 273.357 461.1 262.122 453.055 246.842C445.01 231.562 444.694 213.026 449.335 196.398C455.575 174.031 470.037 154.686 476.622 132.412C477.635 128.989 478.203 124.656 475.422 122.405C473.497 120.852 470.744 121.01 468.298 121.373C441.374 125.334 417.286 144.726 407.679 170.18C403.857 180.29 400.127 197.607 390.167 203.959C380.206 210.302 368.748 201.801 358.825 206.74L358.834 206.73Z" fill="url(#paint31_linear_401_1082)"/>
<path d="M343.703 93.7217C338.523 74.6748 325.93 56.6974 307.497 49.6571C304.93 48.6806 301.992 47.9366 299.527 49.1456C296.514 50.6151 295.435 54.5863 296.216 57.8506C296.997 61.115 299.174 63.84 301.303 66.4441C305.768 71.9219 310.241 77.3998 314.705 82.8776C310.166 76.3395 306.846 68.9551 304.949 61.2359C304.521 59.4875 304.205 57.5065 305.228 56.0371C307.311 53.0424 311.999 55.1443 314.696 57.5995C335.751 76.7301 341.434 105.096 340.281 132.755C339.76 145.143 337.463 157.642 331.724 168.626C328.079 175.61 323.122 181.832 319.216 188.677C315.31 195.522 312.427 203.381 313.524 211.184C314.621 218.987 320.685 226.483 328.544 227.096C319.485 222.232 317.635 209.538 320.862 199.763C324.089 189.989 330.971 181.925 335.845 172.867C347.86 150.555 350.325 118.051 343.713 93.731L343.703 93.7217Z" fill="url(#paint32_linear_401_1082)"/>
<path d="M386.317 146.483C379.211 157.206 374.635 170.125 375.035 183.061C375.231 189.181 375.621 201.624 380.123 206.284C382.662 208.897 386.363 209.279 389.609 210.506C394.036 212.18 395.143 214.803 397.579 218.7C402.332 226.261 407.763 233.692 415.278 238.732C421.871 243.159 429.972 245.698 435.003 251.846C438.51 256.124 440.081 261.732 440.416 267.266C440.528 269.098 440.1 271.479 438.296 271.823C442.406 271.934 445.224 267.145 444.685 263.071C444.136 258.998 441.337 255.64 438.649 252.525C436.38 249.893 434.111 247.261 431.841 244.62C429.888 242.35 427.842 239.876 427.545 236.9C426.68 228.186 439.058 228.446 444.852 227.86C474.204 224.903 502.97 216.365 529.215 202.927C555.497 189.469 579.222 171.854 606.621 160.024C613.903 156.881 621.948 154.017 629.63 156.016C636.344 157.765 641.636 163.01 645.505 168.776C664.459 197.012 653.996 236.677 632.624 263.146C611.262 289.605 581.11 307.192 554.883 328.843C488.768 383.435 443.309 467.081 362.806 496.61C321.847 511.639 283.595 502.673 238.703 486.324C303.703 523.022 392.771 518.809 438.77 493.699C460.365 481.915 478.333 463.808 492.302 443.57C503.816 426.895 512.335 408.285 523.988 391.703C576.925 316.445 684.91 299.147 726.38 214.831C743.576 179.862 735.206 135.063 709.221 106.037C683.236 77.0012 642.008 63.6925 603.301 68.1287C581.557 70.6212 560.724 78.173 540.654 86.8966C515.051 98.029 489.931 111.282 462.476 116.369C435.515 121.373 403.41 120.684 386.317 146.465V146.483Z" fill="url(#paint33_linear_401_1082)"/>
<path d="M384.682 193.591C383.259 190.336 382.291 186.886 381.901 183.286C380.543 170.331 384.663 156.771 393.414 147.062C408.313 130.535 432.485 126.973 454.61 124.639C476.735 122.305 500.842 119.264 516.345 103.314C527.357 91.9952 532.016 75.9895 534.611 60.4116C529.263 79.7468 511.23 93.195 492.332 99.9284C473.443 106.662 453.141 108.131 433.536 112.363C413.931 116.594 393.898 124.351 381.594 140.198C369.838 155.348 364.667 170.527 373.875 188.755C384.421 209.643 405.179 223.78 428.356 226.784C419.483 224.049 410.825 220.357 403.208 215.028C395.488 209.625 388.457 202.259 384.663 193.573V193.591H384.682Z" fill="url(#paint34_linear_401_1082)"/>
<path d="M516.753 347.2C496.023 353.906 472.614 358.528 459.073 375.603C450.061 386.977 447.206 401.867 442.258 415.51C437.301 429.154 428.401 443.207 414.236 446.387C431.786 443.058 444.267 427.564 453.149 412.06C462.03 396.566 469.405 379.444 483.263 368.163C495.892 357.895 512.27 353.84 527.625 348.446C554.586 338.979 579.799 324.573 601.664 306.177C630.039 282.303 660.274 245.502 654.945 211.407C636.921 273.589 576.963 327.735 516.753 347.181V347.2Z" fill="url(#paint35_linear_401_1082)"/>
<path d="M338.756 366.696C339.527 366.696 340.151 366.072 340.151 365.301C340.151 364.531 339.527 363.906 338.756 363.906C337.986 363.906 337.361 364.531 337.361 365.301C337.361 366.072 337.986 366.696 338.756 366.696Z" fill="#DCC48F"/>
<path d="M1.84329 404.213C2.61429 404.213 3.23931 403.588 3.23931 402.817C3.23931 402.046 2.61429 401.421 1.84329 401.421C1.07229 401.421 0.447266 402.046 0.447266 402.817C0.447266 403.588 1.07229 404.213 1.84329 404.213Z" fill="#DCC48F"/>
<path d="M181.317 318.97C182.601 318.97 183.642 317.929 183.642 316.645C183.642 315.361 182.601 314.32 181.317 314.32C180.033 314.32 178.992 315.361 178.992 316.645C178.992 317.929 180.033 318.97 181.317 318.97Z" fill="#DCC48F"/>
<path d="M80.3954 339.665C81.6795 339.665 82.7204 338.624 82.7204 337.34C82.7204 336.056 81.6795 335.015 80.3954 335.015C79.1113 335.015 78.0703 336.056 78.0703 337.34C78.0703 338.624 79.1113 339.665 80.3954 339.665Z" fill="#DCC48F"/>
<path d="M224.563 135.694C225.847 135.694 226.888 134.653 226.888 133.369C226.888 132.084 225.847 131.043 224.563 131.043C223.279 131.043 222.238 132.084 222.238 133.369C222.238 134.653 223.279 135.694 224.563 135.694Z" fill="#DCC48F"/>
<path d="M538.321 369.25C539.605 369.25 540.646 368.209 540.646 366.925C540.646 365.641 539.605 364.6 538.321 364.6C537.037 364.6 535.996 365.641 535.996 366.925C535.996 368.209 537.037 369.25 538.321 369.25Z" fill="#DCC48F"/>
<path d="M344.442 264.102C345.726 264.102 346.767 263.061 346.767 261.777C346.767 260.493 345.726 259.452 344.442 259.452C343.158 259.452 342.117 260.493 342.117 261.777C342.117 263.061 343.158 264.102 344.442 264.102Z" fill="#DCC48F"/>
<path d="M399.968 156.493C401.252 156.493 402.293 155.452 402.293 154.168C402.293 152.884 401.252 151.843 399.968 151.843C398.684 151.843 397.643 152.884 397.643 154.168C397.643 155.452 398.684 156.493 399.968 156.493Z" fill="#DCC48F"/>
<path d="M517.897 4.65012C519.181 4.65012 520.222 3.60916 520.222 2.32506C520.222 1.04097 519.181 0 517.897 0C516.613 0 515.572 1.04097 515.572 2.32506C515.572 3.60916 516.613 4.65012 517.897 4.65012Z" fill="#DCC48F"/>
<path d="M635.52 66.456C636.804 66.456 637.845 65.4151 637.845 64.131C637.845 62.8469 636.804 61.8059 635.52 61.8059C634.236 61.8059 633.195 62.8469 633.195 64.131C633.195 65.4151 634.236 66.456 635.52 66.456Z" fill="#DCC48F"/>
<path d="M517.895 149.423C519.179 149.423 520.22 148.382 520.22 147.098C520.22 145.814 519.179 144.773 517.895 144.773C516.611 144.773 515.57 145.814 515.57 147.098C515.57 148.382 516.611 149.423 517.895 149.423Z" fill="#DCC48F"/>
<path d="M409.694 531.919C410.978 531.919 412.019 530.878 412.019 529.594C412.019 528.31 410.978 527.269 409.694 527.269C408.41 527.269 407.369 528.31 407.369 529.594C407.369 530.878 408.41 531.919 409.694 531.919Z" fill="#DCC48F"/>
<path d="M315.979 431.293C317.263 431.293 318.304 430.252 318.304 428.968C318.304 427.684 317.263 426.643 315.979 426.643C314.695 426.643 313.654 427.684 313.654 428.968C313.654 430.252 314.695 431.293 315.979 431.293Z" fill="#DCC48F"/>
<path d="M480.655 229.423C481.939 229.423 482.98 228.382 482.98 227.098C482.98 225.814 481.939 224.773 480.655 224.773C479.371 224.773 478.33 225.814 478.33 227.098C478.33 228.382 479.371 229.423 480.655 229.423Z" fill="#DCC48F"/>
<path d="M667.45 333.309C668.734 333.309 669.775 332.268 669.775 330.984C669.775 329.7 668.734 328.659 667.45 328.659C666.166 328.659 665.125 329.7 665.125 330.984C665.125 332.268 666.166 333.309 667.45 333.309Z" fill="#DCC48F"/>
<path d="M585.19 220.668C586.474 220.668 587.515 219.627 587.515 218.343C587.515 217.059 586.474 216.018 585.19 216.018C583.906 216.018 582.865 217.059 582.865 218.343C582.865 219.627 583.906 220.668 585.19 220.668Z" fill="#DCC48F"/>
<path d="M695.821 164.041C697.105 164.041 698.146 163 698.146 161.716C698.146 160.432 697.105 159.391 695.821 159.391C694.537 159.391 693.496 160.432 693.496 161.716C693.496 163 694.537 164.041 695.821 164.041Z" fill="#DCC48F"/>
<path d="M195.668 282.009C196.439 282.009 197.064 281.384 197.064 280.614C197.064 279.843 196.439 279.219 195.668 279.219C194.898 279.219 194.273 279.843 194.273 280.614C194.273 281.384 194.898 282.009 195.668 282.009Z" fill="#DCC48F"/>
<path d="M162.645 362.282C163.415 362.282 164.04 361.657 164.04 360.887C164.04 360.116 163.415 359.492 162.645 359.492C161.875 359.492 161.25 360.116 161.25 360.887C161.25 361.657 161.875 362.282 162.645 362.282Z" fill="#DCC48F"/>
<path d="M245.633 304.474C246.404 304.474 247.028 303.849 247.028 303.079C247.028 302.308 246.404 301.684 245.633 301.684C244.863 301.684 244.238 302.308 244.238 303.079C244.238 303.849 244.863 304.474 245.633 304.474Z" fill="#DCC48F"/>
<path d="M287.848 230.185C288.619 230.185 289.243 229.56 289.243 228.79C289.243 228.019 288.619 227.395 287.848 227.395C287.078 227.395 286.453 228.019 286.453 228.79C286.453 229.56 287.078 230.185 287.848 230.185Z" fill="#DCC48F"/>
<path d="M245.411 464.551C246.181 464.551 246.806 463.926 246.806 463.156C246.806 462.385 246.181 461.761 245.411 461.761C244.64 461.761 244.016 462.385 244.016 463.156C244.016 463.926 244.64 464.551 245.411 464.551Z" fill="#DCC48F"/>
<path d="M278.938 489.122C279.708 489.122 280.333 488.497 280.333 487.727C280.333 486.956 279.708 486.332 278.938 486.332C278.168 486.332 277.543 486.956 277.543 487.727C277.543 488.497 278.168 489.122 278.938 489.122Z" fill="#DCC48F"/>
<path d="M431.274 209.268C432.044 209.268 432.669 208.644 432.669 207.873C432.669 207.103 432.044 206.478 431.274 206.478C430.503 206.478 429.879 207.103 429.879 207.873C429.879 208.644 430.503 209.268 431.274 209.268Z" fill="#DCC48F"/>
<path d="M434.04 172.568C434.81 172.568 435.435 171.943 435.435 171.173C435.435 170.402 434.81 169.778 434.04 169.778C433.269 169.778 432.645 170.402 432.645 171.173C432.645 171.943 433.269 172.568 434.04 172.568Z" fill="#DCC48F"/>
<path d="M462.602 193.65C463.373 193.65 463.997 193.025 463.997 192.255C463.997 191.484 463.373 190.86 462.602 190.86C461.832 190.86 461.207 191.484 461.207 192.255C461.207 193.025 461.832 193.65 462.602 193.65Z" fill="#DCC48F"/>
<path d="M536.001 137.061C536.771 137.061 537.396 136.436 537.396 135.666C537.396 134.896 536.771 134.271 536.001 134.271C535.23 134.271 534.605 134.896 534.605 135.666C534.605 136.436 535.23 137.061 536.001 137.061Z" fill="#DCC48F"/>
<path d="M380.844 63.1956C381.615 63.1956 382.239 62.571 382.239 61.8006C382.239 61.0301 381.615 60.4055 380.844 60.4055C380.074 60.4055 379.449 61.0301 379.449 61.8006C379.449 62.571 380.074 63.1956 380.844 63.1956Z" fill="#DCC48F"/>
<path d="M510.946 110.122C511.716 110.122 512.341 109.498 512.341 108.727C512.341 107.957 511.716 107.332 510.946 107.332C510.175 107.332 509.551 107.957 509.551 108.727C509.551 109.498 510.175 110.122 510.946 110.122Z" fill="#DCC48F"/>
<path d="M194.177 463.031L209.424 451.954L203.599 434.031H184.754L178.93 451.954L194.177 463.031Z" fill="url(#paint36_linear_401_1082)"/>
<path d="M194.177 463.031L209.424 451.954M194.177 463.031L178.93 451.954M194.177 463.031L204.994 451.314M194.177 463.031L183.446 451.314M209.424 451.954L203.599 434.031M209.424 451.954L204.994 451.314M203.599 434.031H184.754M203.599 434.031L204.994 451.314M184.754 434.031L178.93 451.954M184.754 434.031L204.994 451.314M184.754 434.031L183.446 451.314M178.93 451.954L183.446 451.314" stroke="url(#paint37_linear_401_1082)" stroke-miterlimit="10"/>
<path d="M601.151 450.727L616.398 439.65L610.574 421.727H591.728L585.904 439.65L601.151 450.727Z" fill="url(#paint38_linear_401_1082)"/>
<path d="M601.151 450.727L616.398 439.65M601.151 450.727L585.904 439.65M601.151 450.727L611.969 439.01M601.151 450.727L590.421 439.01M616.398 439.65L610.574 421.727M616.398 439.65L611.969 439.01M610.574 421.727H591.728M610.574 421.727L611.969 439.01M591.728 421.727L585.904 439.65M591.728 421.727L611.969 439.01M591.728 421.727L590.421 439.01M585.904 439.65L590.421 439.01" stroke="url(#paint39_linear_401_1082)" stroke-miterlimit="10"/>
<path d="M228.722 193.291L243.969 182.213L238.144 164.291H219.299L213.475 182.213L228.722 193.291Z" fill="url(#paint40_linear_401_1082)"/>
<path d="M228.722 193.291L243.969 182.213M228.722 193.291L213.475 182.213M228.722 193.291L239.539 181.573M228.722 193.291L217.991 181.573M243.969 182.213L238.144 164.291M243.969 182.213L239.539 181.573M238.144 164.291H219.299M238.144 164.291L239.539 181.573M219.299 164.291L213.475 182.213M219.299 164.291L239.539 181.573M219.299 164.291L217.991 181.573M213.475 182.213L217.991 181.573" stroke="url(#paint41_linear_401_1082)" stroke-miterlimit="10"/>
<defs>
<linearGradient id="paint0_linear_401_1082" x1="36.8581" y1="505.777" x2="747.006" y2="505.777" gradientUnits="userSpaceOnUse">
<stop stop-color="#1B33EA" stop-opacity="0.2"/>
<stop offset="0.16" stop-color="#192BAC" stop-opacity="0.48"/>
<stop offset="0.49" stop-color="#162357" stop-opacity="0.87"/>
<stop offset="0.89" stop-color="#0B142F"/>
</linearGradient>
<linearGradient id="paint1_linear_401_1082" x1="25.0851" y1="356.102" x2="418.318" y2="356.102" gradientUnits="userSpaceOnUse">
<stop stop-color="#8690E0" stop-opacity="0.93"/>
<stop offset="0.45" stop-color="#1B33EA" stop-opacity="0.7"/>
<stop offset="0.54" stop-color="#1A31E0" stop-opacity="0.72"/>
<stop offset="0.66" stop-color="#192EC3" stop-opacity="0.77"/>
<stop offset="0.8" stop-color="#182993" stop-opacity="0.85"/>
<stop offset="0.95" stop-color="#162253" stop-opacity="0.96"/>
<stop offset="1" stop-color="#16203B"/>
</linearGradient>
<linearGradient id="paint2_linear_401_1082" x1="381.433" y1="403.77" x2="371.696" y2="430.526" gradientUnits="userSpaceOnUse">
<stop stop-color="#C89541"/>
<stop offset="1" stop-color="#1B33EA"/>
</linearGradient>
<linearGradient id="paint3_linear_401_1082" x1="274.293" y1="370.797" x2="330.894" y2="370.797" gradientUnits="userSpaceOnUse">
<stop stop-color="white"/>
<stop offset="1" stop-color="#E8CA89"/>
</linearGradient>
<linearGradient id="paint4_linear_401_1082" x1="271.484" y1="352.659" x2="286.82" y2="352.659" gradientUnits="userSpaceOnUse">
<stop stop-color="white"/>
<stop offset="1" stop-color="#F0DDB2"/>
</linearGradient>
<linearGradient id="paint5_linear_401_1082" x1="267.015" y1="351.88" x2="285.327" y2="351.88" gradientUnits="userSpaceOnUse">
<stop stop-color="white"/>
<stop offset="1" stop-color="#EDD6A4"/>
</linearGradient>
<linearGradient id="paint6_linear_401_1082" x1="261.757" y1="367.836" x2="326.775" y2="367.836" gradientUnits="userSpaceOnUse">
<stop stop-color="white"/>
<stop offset="1" stop-color="#E8CA89"/>
</linearGradient>
<linearGradient id="paint7_linear_401_1082" x1="297.734" y1="371.885" x2="355.461" y2="405.217" gradientUnits="userSpaceOnUse">
<stop stop-color="#D1A454" stop-opacity="0.4"/>
<stop offset="1" stop-color="#5257B6"/>
</linearGradient>
<linearGradient id="paint8_linear_401_1082" x1="421.021" y1="464.182" x2="611.862" y2="464.182" gradientUnits="userSpaceOnUse">
<stop stop-color="#1B33EA"/>
<stop offset="1" stop-color="#1B33EA" stop-opacity="0.3"/>
</linearGradient>
<linearGradient id="paint9_linear_401_1082" x1="412.077" y1="333.195" x2="442.954" y2="344.439" gradientUnits="userSpaceOnUse">
<stop stop-color="white"/>
<stop offset="0.51" stop-color="#E8CA89"/>
</linearGradient>
<linearGradient id="paint10_linear_401_1082" x1="410.185" y1="252.603" x2="483.183" y2="453.153" gradientUnits="userSpaceOnUse">
<stop stop-color="white"/>
<stop offset="0.48" stop-color="#E8CA89"/>
<stop offset="1" stop-color="#1234F5"/>
</linearGradient>
<linearGradient id="paint11_linear_401_1082" x1="444.554" y1="360.302" x2="498.486" y2="340.67" gradientUnits="userSpaceOnUse">
<stop stop-color="#E8CA89"/>
<stop offset="0.13" stop-color="#E3C483" stop-opacity="0.99"/>
<stop offset="0.31" stop-color="#D7B676" stop-opacity="0.95"/>
<stop offset="0.53" stop-color="#C49D5E" stop-opacity="0.9"/>
<stop offset="0.68" stop-color="#B58A4B" stop-opacity="0.85"/>
<stop offset="0.77" stop-color="#8F766A" stop-opacity="0.81"/>
<stop offset="0.95" stop-color="#3441CB" stop-opacity="0.73"/>
<stop offset="1" stop-color="#1B33EA" stop-opacity="0.7"/>
</linearGradient>
<linearGradient id="paint12_linear_401_1082" x1="355.228" y1="239.643" x2="416.312" y2="217.769" gradientUnits="userSpaceOnUse">
<stop stop-color="white"/>
<stop offset="1" stop-color="#E8CA89"/>
</linearGradient>
<linearGradient id="paint13_linear_401_1082" x1="518.81" y1="515.026" x2="655.133" y2="515.026" gradientUnits="userSpaceOnUse">
<stop stop-color="#1B33EA" stop-opacity="0.2"/>
<stop offset="0.16" stop-color="#192BAC" stop-opacity="0.48"/>
<stop offset="0.49" stop-color="#162357" stop-opacity="0.87"/>
<stop offset="0.89" stop-color="#16203B"/>
</linearGradient>
<linearGradient id="paint14_linear_401_1082" x1="400.659" y1="526.064" x2="533.104" y2="637.193" gradientUnits="userSpaceOnUse">
<stop stop-color="#1B33EA"/>
<stop offset="0.06" stop-color="#1B33EA" stop-opacity="0.89"/>
<stop offset="0.21" stop-color="#1B33EA" stop-opacity="0.65"/>
<stop offset="0.35" stop-color="#1B33EA" stop-opacity="0.45"/>
<stop offset="0.49" stop-color="#1B33EA" stop-opacity="0.29"/>
<stop offset="0.63" stop-color="#1B33EA" stop-opacity="0.16"/>
<stop offset="0.76" stop-color="#1B33EA" stop-opacity="0.07"/>
<stop offset="0.89" stop-color="#1B33EA" stop-opacity="0.02"/>
<stop offset="1" stop-color="#1B33EA" stop-opacity="0"/>
</linearGradient>
<linearGradient id="paint15_linear_401_1082" x1="364.684" y1="455.612" x2="468" y2="395.969" gradientUnits="userSpaceOnUse">
<stop stop-color="#1B33EA"/>
<stop offset="0.57" stop-color="#8C746F"/>
<stop offset="0.71" stop-color="#897271"/>
<stop offset="0.78" stop-color="#836F78"/>
<stop offset="0.83" stop-color="#786982"/>
<stop offset="0.88" stop-color="#675F93"/>
<stop offset="0.92" stop-color="#5253AA"/>
<stop offset="0.96" stop-color="#3945C5"/>
<stop offset="1" stop-color="#1B33EA"/>
</linearGradient>
<linearGradient id="paint16_linear_401_1082" x1="291.534" y1="290.801" x2="291.534" y2="270.34" gradientUnits="userSpaceOnUse">
<stop stop-color="white"/>
<stop offset="0.2" stop-color="#FEFDFB"/>
<stop offset="0.38" stop-color="#FCF8F0"/>
<stop offset="0.56" stop-color="#F8F0DD"/>
<stop offset="0.73" stop-color="#F3E4C3"/>
<stop offset="0.89" stop-color="#EDD5A2"/>
<stop offset="1" stop-color="#E8CA89"/>
</linearGradient>
<linearGradient id="paint17_linear_401_1082" x1="266.867" y1="298.653" x2="266.867" y2="280.425" gradientUnits="userSpaceOnUse">
<stop stop-color="white"/>
<stop offset="0.23" stop-color="#FEFDFB"/>
<stop offset="0.41" stop-color="#FCF9F2"/>
<stop offset="0.57" stop-color="#F9F1E1"/>
<stop offset="0.72" stop-color="#F4E7CA"/>
<stop offset="0.86" stop-color="#EFDAAC"/>
<stop offset="1" stop-color="#E8CA89"/>
</linearGradient>
<linearGradient id="paint18_linear_401_1082" x1="nan" y1="nan" x2="nan" y2="nan" gradientUnits="userSpaceOnUse">
<stop stop-color="#E8CA89"/>
<stop offset="1" stop-color="white"/>
</linearGradient>
<linearGradient id="paint19_linear_401_1082" x1="nan" y1="nan" x2="nan" y2="nan" gradientUnits="userSpaceOnUse">
<stop stop-color="#E8CA89"/>
<stop offset="1" stop-color="white"/>
</linearGradient>
<linearGradient id="paint20_linear_401_1082" x1="282.915" y1="330.189" x2="314.359" y2="292.727" gradientUnits="userSpaceOnUse">
<stop stop-color="#E8CA89"/>
<stop offset="0.1" stop-color="#ECD4A0"/>
<stop offset="0.27" stop-color="#F3E3C2"/>
<stop offset="0.44" stop-color="#F8EFDD"/>
<stop offset="0.62" stop-color="#FCF8EF"/>
<stop offset="0.8" stop-color="#FEFDFB"/>
<stop offset="1" stop-color="white"/>
</linearGradient>
<linearGradient id="paint21_linear_401_1082" x1="284.056" y1="334.306" x2="311.706" y2="301.365" gradientUnits="userSpaceOnUse">
<stop stop-color="#E8CA89"/>
<stop offset="0.02" stop-color="#E8CB8D"/>
<stop offset="0.23" stop-color="#F0DEB5"/>
<stop offset="0.44" stop-color="#F6ECD5"/>
<stop offset="0.64" stop-color="#FBF6EC"/>
<stop offset="0.83" stop-color="#FEFCFA"/>
<stop offset="1" stop-color="white"/>
</linearGradient>
<linearGradient id="paint22_linear_401_1082" x1="336.91" y1="383.017" x2="411.042" y2="383.017" gradientUnits="userSpaceOnUse">
<stop stop-color="#D1A454"/>
<stop offset="0.02" stop-color="#CA9F59"/>
<stop offset="0.16" stop-color="#A58975"/>
<stop offset="0.3" stop-color="#87778C"/>
<stop offset="0.45" stop-color="#6F689F"/>
<stop offset="0.6" stop-color="#5F5EAB"/>
<stop offset="0.78" stop-color="#5558B3"/>
<stop offset="1" stop-color="#5257B6"/>
</linearGradient>
<linearGradient id="paint23_linear_401_1082" x1="331.697" y1="347.128" x2="326.972" y2="373.932" gradientUnits="userSpaceOnUse">
<stop stop-color="white"/>
<stop offset="1" stop-color="#E8CA89"/>
</linearGradient>
<linearGradient id="paint24_linear_401_1082" x1="289.749" y1="376.627" x2="341.235" y2="376.627" gradientUnits="userSpaceOnUse">
<stop stop-color="#E8B254"/>
<stop offset="1" stop-color="#1B33EA"/>
</linearGradient>
<linearGradient id="paint25_linear_401_1082" x1="319.253" y1="360.379" x2="370.888" y2="360.379" gradientUnits="userSpaceOnUse">
<stop stop-color="white"/>
<stop offset="1" stop-color="#E8CA89"/>
</linearGradient>
<linearGradient id="paint26_linear_401_1082" x1="328.862" y1="350.02" x2="322.25" y2="387.509" gradientUnits="userSpaceOnUse">
<stop stop-color="white"/>
<stop offset="0.02" stop-color="#FBF9F3"/>
<stop offset="0.08" stop-color="#F6EAD2"/>
<stop offset="0.14" stop-color="#F0DFB7"/>
<stop offset="0.21" stop-color="#ECD5A2"/>
<stop offset="0.28" stop-color="#EACF94"/>
<stop offset="0.36" stop-color="#E8CB8B"/>
<stop offset="0.48" stop-color="#E8CA89"/>
<stop offset="0.82" stop-color="#C89541"/>
<stop offset="1" stop-color="#7173BD"/>
</linearGradient>
<linearGradient id="paint27_linear_401_1082" x1="284.242" y1="370.35" x2="366.735" y2="370.35" gradientUnits="userSpaceOnUse">
<stop stop-color="#D1A454"/>
<stop offset="1" stop-color="#5257B6" stop-opacity="0.6"/>
</linearGradient>
<linearGradient id="paint28_linear_401_1082" x1="465.931" y1="384.216" x2="510.079" y2="384.216" gradientUnits="userSpaceOnUse">
<stop stop-color="#C89541"/>
<stop offset="1" stop-color="#1B33EA"/>
</linearGradient>
<linearGradient id="paint29_linear_401_1082" x1="341.289" y1="218.567" x2="461.272" y2="218.567" gradientUnits="userSpaceOnUse">
<stop stop-color="#1B33EA"/>
<stop offset="1" stop-color="#1B33EA" stop-opacity="0.3"/>
</linearGradient>
<linearGradient id="paint30_linear_401_1082" x1="391.504" y1="359.372" x2="732.748" y2="359.372" gradientUnits="userSpaceOnUse">
<stop stop-color="#1B33EA" stop-opacity="0.7"/>
<stop offset="0.2" stop-color="#192CB0" stop-opacity="0.8"/>
<stop offset="0.42" stop-color="#17267D" stop-opacity="0.89"/>
<stop offset="0.63" stop-color="#162359" stop-opacity="0.95"/>
<stop offset="0.83" stop-color="#152042" stop-opacity="0.99"/>
<stop offset="1" stop-color="#0A142E"/>
</linearGradient>
<linearGradient id="paint31_linear_401_1082" x1="307.171" y1="238.509" x2="726.696" y2="238.509" gradientUnits="userSpaceOnUse">
<stop stop-color="#8690E0" stop-opacity="0.93"/>
<stop offset="0.45" stop-color="#1B33EA" stop-opacity="0.7"/>
<stop offset="0.54" stop-color="#1A31E0" stop-opacity="0.72"/>
<stop offset="0.66" stop-color="#192EC3" stop-opacity="0.77"/>
<stop offset="0.8" stop-color="#182993" stop-opacity="0.85"/>
<stop offset="0.95" stop-color="#162253" stop-opacity="0.96"/>
<stop offset="1" stop-color="#16203B"/>
</linearGradient>
<linearGradient id="paint32_linear_401_1082" x1="295.965" y1="137.796" x2="347.293" y2="137.796" gradientUnits="userSpaceOnUse">
<stop stop-color="#8690E0" stop-opacity="0.93"/>
<stop offset="0.45" stop-color="#1B33EA" stop-opacity="0.7"/>
<stop offset="0.54" stop-color="#1A31E0" stop-opacity="0.72"/>
<stop offset="0.66" stop-color="#192EC3" stop-opacity="0.77"/>
<stop offset="0.8" stop-color="#182993" stop-opacity="0.85"/>
<stop offset="0.95" stop-color="#162253" stop-opacity="0.96"/>
<stop offset="1" stop-color="#16203B"/>
</linearGradient>
<linearGradient id="paint33_linear_401_1082" x1="238.712" y1="290.256" x2="735.392" y2="290.256" gradientUnits="userSpaceOnUse">
<stop stop-color="#8690E0" stop-opacity="0.93"/>
<stop offset="0.72" stop-color="#1B33EA" stop-opacity="0.7"/>
<stop offset="0.76" stop-color="#1A31E0" stop-opacity="0.72"/>
<stop offset="0.82" stop-color="#192EC3" stop-opacity="0.77"/>
<stop offset="0.89" stop-color="#182993" stop-opacity="0.85"/>
<stop offset="0.97" stop-color="#162253" stop-opacity="0.96"/>
<stop offset="1" stop-color="#16203B"/>
</linearGradient>
<linearGradient id="paint34_linear_401_1082" x1="367.439" y1="163.709" x2="547.231" y2="132.005" gradientUnits="userSpaceOnUse">
<stop stop-color="#8690E0" stop-opacity="0.93"/>
<stop offset="0.44" stop-color="#1B33EA" stop-opacity="0.7"/>
<stop offset="0.53" stop-color="#1A31E0" stop-opacity="0.72"/>
<stop offset="0.65" stop-color="#192EC3" stop-opacity="0.77"/>
<stop offset="0.79" stop-color="#182993" stop-opacity="0.85"/>
<stop offset="1" stop-color="#16203B" stop-opacity="0.4"/>
</linearGradient>
<linearGradient id="paint35_linear_401_1082" x1="414.236" y1="328.897" x2="655.559" y2="328.897" gradientUnits="userSpaceOnUse">
<stop offset="0.09" stop-color="#DFDFDF" stop-opacity="0.93"/>
<stop offset="0.15" stop-color="#D2D4DF" stop-opacity="0.92"/>
<stop offset="0.25" stop-color="#B2B9E0" stop-opacity="0.88"/>
<stop offset="0.38" stop-color="#808CE2" stop-opacity="0.82"/>
<stop offset="0.54" stop-color="#394FE7" stop-opacity="0.74"/>
<stop offset="0.61" stop-color="#1B33EA" stop-opacity="0.7"/>
<stop offset="0.73" stop-color="#1A31D9" stop-opacity="0.74"/>
<stop offset="0.9" stop-color="#192BAA" stop-opacity="0.86"/>
<stop offset="1" stop-color="#182886" stop-opacity="0.95"/>
</linearGradient>
<linearGradient id="paint36_linear_401_1082" x1="205.177" y1="436.864" x2="184.677" y2="456.864" gradientUnits="userSpaceOnUse">
<stop stop-color="#0D26B4" stop-opacity="0.5"/>
<stop offset="1" stop-color="#DACBAE"/>
</linearGradient>
<linearGradient id="paint37_linear_401_1082" x1="204.677" y1="436.031" x2="193.51" y2="462.531" gradientUnits="userSpaceOnUse">
<stop stop-color="#F0E0C1"/>
<stop offset="1" stop-color="#0C219A"/>
</linearGradient>
<linearGradient id="paint38_linear_401_1082" x1="592.151" y1="422.227" x2="608.651" y2="445.727" gradientUnits="userSpaceOnUse">
<stop stop-color="#1234F5" stop-opacity="0.5"/>
<stop offset="0.914377" stop-color="#E2C488"/>
</linearGradient>
<linearGradient id="paint39_linear_401_1082" x1="592.151" y1="421.227" x2="608.651" y2="445.727" gradientUnits="userSpaceOnUse">
<stop stop-color="#EAD8B3"/>
<stop offset="1" stop-color="#1234F5"/>
</linearGradient>
<linearGradient id="paint40_linear_401_1082" x1="219.722" y1="164.791" x2="236.222" y2="188.291" gradientUnits="userSpaceOnUse">
<stop stop-color="#E2C488"/>
<stop offset="1" stop-color="#1234F5" stop-opacity="0.5"/>
</linearGradient>
<linearGradient id="paint41_linear_401_1082" x1="219.722" y1="163.791" x2="236.222" y2="188.291" gradientUnits="userSpaceOnUse">
<stop stop-color="#1234F5"/>
<stop offset="1" stop-color="#B6A59F"/>
</linearGradient>
</defs>
</svg>
